<?xml version="1.0" encoding="utf-8"?>
<!-- Generator: Adobe Illustrator 16.0.0, SVG Export Plug-In . SVG Version: 6.00 Build 0)  -->
<!DOCTYPE svg PUBLIC "-//W3C//DTD SVG 1.1//EN" "http://www.w3.org/Graphics/SVG/1.1/DTD/svg11.dtd">
<svg version="1.1" id="Layer_1" xmlns="http://www.w3.org/2000/svg" xmlns:xlink="http://www.w3.org/1999/xlink" x="0px" y="0px"
	 width="24px" height="24px" viewBox="0 0 24 24" enable-background="new 0 0 24 24" xml:space="preserve">
<g>
	<path fill="#FFFFFF" d="M22.195,17.621c0.437-0.689,0.687-1.465,1.104-2.162c-0.76-0.264-1.367-0.828-1.972-1.354l0,0
		c-0.911-0.816-1.981-1.437-3.146-1.813c-0.065-0.023-0.119-0.076-0.146-0.141c-0.024-0.066-0.019-0.14,0.021-0.2
		c0.019-0.048,0.057-0.088,0.104-0.108c0.967-0.464,2.007-0.803,2.912-1.393c0.728-0.475,1.43-0.983,2.196-1.395
		c-0.531-0.68-0.834-1.481-1.307-2.209c-0.561-0.861-1.217-1.644-1.681-2.567c-0.892,0.453-1.712,1.013-2.597,1.472
		C16.82,6.2,15.898,6.582,15.208,7.295l0,0c-0.072,0.067-0.183,0.081-0.271,0.031c-0.088-0.051-0.133-0.152-0.111-0.249
		C14.824,7.064,14.82,7.05,14.82,7.036c-0.188-2.048,0.111-4.09,0.096-6.137c-1.939-0.02-3.881-0.207-5.814,0.008
		C9.096,2.965,9.031,5.022,9.294,7.07C9.317,7.263,9.125,7.326,8.98,7.262C8.937,7.264,8.893,7.254,8.855,7.235
		C6.994,6.259,5.123,5.304,3.262,4.329C2.436,5.826,1.5,7.259,0.681,8.76c0.839,0.65,1.831,0.995,2.734,1.536
		c0.859,0.511,1.727,0.996,2.6,1.481l0,0c0.045,0.024,0.081,0.064,0.099,0.112C6.172,11.931,6.205,12,6.197,12.073
		c-0.006,0.072-0.053,0.135-0.119,0.162c-0.913,0.397-1.597,1.109-2.448,1.601c-0.827,0.477-1.675,0.922-2.54,1.324l0,0
		c0.429,0.643,0.794,1.324,1.089,2.035c0.414,0.918,0.925,1.779,1.403,2.664c0.718-0.596,1.553-0.977,2.389-1.395
		c0.978-0.488,1.911-1.063,2.885-1.563l0,0c0.088-0.045,0.195-0.025,0.268,0.041c0.071,0.066,0.093,0.176,0.055,0.266
		c0.147,0.951,0.208,1.912,0.179,2.873c-0.01,1.07,0.105,2.16,0.014,3.229c1.793-0.139,3.588-0.027,5.384-0.016
		c-0.031-2.049-0.27-4.104,0.096-6.131l0,0c-0.011-0.09,0.027-0.178,0.1-0.232c0.068-0.053,0.165-0.064,0.248-0.033
		c0.965,0.416,1.758,1.121,2.656,1.646c0.869,0.51,1.787,0.924,2.643,1.455C21.027,19.182,21.675,18.445,22.195,17.621
		L22.195,17.621z"/>
	<path fill="#0062F6" d="M12.949,9.807l-0.145-0.122l-0.008,0.189c-0.021,0.665-0.111,1.409-0.654,1.876
		c-0.066,0.056-0.141,0.119-0.223,0.188c-0.656,0.538-1.753,1.439-1.232,2.283l0.134,0.213l0.034-0.25l0,0
		c0.06-0.496,0.307-0.947,0.69-1.265c0.219-0.176,0.46-0.323,0.717-0.438c0.132-0.065,0.266-0.131,0.393-0.207
		c0.438-0.265,0.721-0.726,0.762-1.237C13.475,10.575,13.296,10.116,12.949,9.807L12.949,9.807z"/>
	<path fill="#FFFFFF" d="M15.225,17.373c-0.332,2.014-0.063,4.059-0.052,6.086c0,0.066-0.03,0.133-0.085,0.176
		c-0.057,0.039-0.125,0.055-0.191,0.035c-0.023,0.012-0.051,0.016-0.078,0.016c-1.909-0.012-3.821-0.139-5.729,0.033
		c-0.061,0.006-0.122-0.016-0.165-0.059s-0.062-0.105-0.051-0.166c-0.011-0.033-0.015-0.066-0.011-0.1
		c0.107-1.016-0.011-2.031-0.004-3.051l0,0c0.037-0.982-0.008-1.969-0.137-2.941c-0.856,0.457-1.686,0.965-2.559,1.389
		c-0.886,0.43-1.781,0.828-2.514,1.506l0,0c-0.075,0.072-0.193,0.082-0.279,0.021c-0.048-0.02-0.086-0.055-0.11-0.104
		c-0.463-0.865-0.992-1.703-1.396-2.604c-0.374-0.832-0.726-1.688-1.291-2.411H0.569c-0.049-0.066-0.063-0.152-0.037-0.229
		c-0.011-0.084,0.037-0.164,0.116-0.193c1.03-0.432,2.017-0.955,2.953-1.563c0.592-0.462,1.214-0.888,1.859-1.275
		c-0.943-0.537-1.877-1.123-2.845-1.606C1.78,9.966,0.989,9.507,0.253,8.967c-0.026-0.021-0.045-0.046-0.06-0.074
		C0.12,8.823,0.104,8.714,0.154,8.626c0.855-1.591,1.853-3.1,2.721-4.686C2.89,3.913,2.911,3.889,2.934,3.87
		C2.961,3.812,3.01,3.77,3.07,3.748c0.06-0.02,0.126-0.015,0.182,0.016c1.83,0.959,3.671,1.898,5.501,2.855
		c-0.212-1.955-0.15-3.921-0.147-5.888l0,0c0.001-0.018,0.005-0.037,0.011-0.057C8.608,0.543,8.705,0.427,8.834,0.409
		c2.053-0.261,4.114-0.045,6.172-0.032c0.02,0.001,0.036,0.004,0.053,0.011c0.064-0.014,0.135,0.003,0.188,0.045
		c0.054,0.042,0.085,0.104,0.085,0.171c0.038,1.995-0.248,3.981-0.125,5.972c0.614-0.454,1.276-0.845,1.976-1.167
		c1.037-0.539,2.006-1.201,3.063-1.709l0,0c0.068-0.031,0.146-0.03,0.214,0.003c0.065,0.034,0.112,0.096,0.129,0.169
		c0,0.002,0.001,0.002,0.001,0.005c0.469,0.97,1.195,1.747,1.732,2.667c0.465,0.792,0.804,1.662,1.43,2.35
		c0.051,0.057,0.07,0.136,0.055,0.211c-0.02,0.074-0.07,0.136-0.144,0.164c-0.007,0.005-0.015,0.01-0.021,0.014
		c-0.938,0.475-1.738,1.154-2.654,1.659c-0.709,0.394-1.463,0.689-2.198,1.02l0,0c0.8,0.291,1.548,0.704,2.216,1.229
		c0.833,0.683,1.615,1.617,2.708,1.849c0.089,0.022,0.155,0.101,0.164,0.19c0.009,0.092-0.038,0.179-0.12,0.222
		c-0.543,0.825-0.807,1.786-1.389,2.59c-0.557,0.772-1.153,1.517-1.65,2.332l0,0c-0.041,0.063-0.111,0.104-0.186,0.106
		c-0.078,0.004-0.15-0.03-0.195-0.092c-0.884-0.563-1.842-0.994-2.75-1.521C16.771,18.41,16.055,17.797,15.225,17.373L15.225,17.373
		z"/>
	<path fill="#0062F6" d="M12.138,12.631l0.056-0.021l0.002-0.062c0.001-0.088,0.004-0.178,0.009-0.266
		c0.02-0.266,0.014-0.535-0.019-0.799l-0.031-0.194l-0.127,0.148c-0.27,0.315-0.277,0.762-0.259,1.231l0.005,0.163l0.135-0.089l0,0
		C11.982,12.697,12.057,12.66,12.138,12.631L12.138,12.631z"/>
	<path fill="#0062F6" d="M11.23,2.353c0.209-0.27,0.539-0.42,0.878-0.397c0.748,0.031,0.992,0.867,0.855,1.479
		c-0.011,0.054-0.043,0.1-0.091,0.125c-0.049,0.059-0.128,0.083-0.202,0.061c-0.463-0.113-0.941-0.158-1.42-0.135
		c-0.105,0-0.151-0.126-0.138-0.236l0,0C11.048,2.946,11.089,2.63,11.23,2.353L11.23,2.353z"/>
	<path fill="#0062F6" d="M10.204,8.129c-0.936-1.181-0.401-3.15,0.543-4.176c0.015-0.016,0.033-0.03,0.053-0.042
		c0.359-0.247,0.803-0.34,1.232-0.26c0.442,0.066,0.882,0.353,0.921,0.844C13.04,5.54,11.926,5.628,11.145,5.5
		c-0.143,0.254-0.337,0.997-0.017,1.109c0.085,0.025,0.144,0.103,0.146,0.191c-0.001,0.568-0.091,1.125-0.142,1.688l0,0
		c-0.001,0.063-0.031,0.121-0.08,0.158c-0.05,0.039-0.112,0.052-0.173,0.037C10.583,8.608,10.336,8.406,10.204,8.129L10.204,8.129z"
		/>
	<path fill="#0062F6" d="M11.923,21.746c-0.361-0.256-0.28-0.838-0.245-1.217l0,0c-0.01-0.092-0.009-0.188,0.004-0.281
		c0.007-0.051,0.017-0.105,0.033-0.158c0.002-0.043,0.002-0.082,0.002-0.123c-0.01-0.732-0.111-1.631,0.604-2.07
		c0.079-0.055,0.188-0.037,0.246,0.041c0.057,0.021,0.095,0.066,0.109,0.123c0.09,0.375,0.118,0.762,0.08,1.146
		c-0.012,0.338-0.042,0.432-0.331,0.605c-0.166,0.078-0.29,0.221-0.345,0.395c-0.01,0.088-0.019,0.182-0.026,0.279l0,0
		c0.005,0.033,0.009,0.068,0.019,0.104c0.04,0.168,0.119,0.322,0.23,0.455c0.1,0.104,0.244,0.135,0.327,0.244
		c0.021,0.021,0.036,0.055,0.044,0.082C12.842,21.854,12.234,21.971,11.923,21.746L11.923,21.746z"/>
	<path fill="#0062F6" d="M12.641,21.088L12.641,21.088c-0.306-0.131-0.487-0.447-0.439-0.777c0.005-0.156,0.084-0.303,0.212-0.395
		c0.128-0.09,0.292-0.117,0.442-0.068C13.723,19.836,13.417,21.398,12.641,21.088L12.641,21.088z"/>
	<path fill="#0062F6" d="M13.548,16.348L13.548,16.348c-0.001,0-0.001,0-0.001,0.002c-0.004,0.018-0.011,0.031-0.02,0.045
		c-0.444,0.789-1.951,1.199-1.854,2.182c0.017,0.18-0.226,0.254-0.343,0.139c-0.553-0.543-0.472-1.143-0.028-1.734
		c0.563-0.752,1.62-1.031,1.478-2.152c-0.021-0.162,0.18-0.229,0.3-0.172C13.671,14.947,13.749,15.783,13.548,16.348L13.548,16.348z
		"/>
	<path fill="#0062F6" d="M12.233,12.577c0.024-0.021,0.053-0.036,0.083-0.046c0.044-0.029,0.097-0.039,0.148-0.025
		c0.05,0.014,0.093,0.047,0.115,0.096c0.292,0.567,0.188,1.231,0.162,1.844c-0.03,0.681-0.234,0.89-0.714,1.345v-0.002
		c-0.022,0.021-0.049,0.037-0.076,0.047c-0.06,0.045-0.139,0.052-0.206,0.021s-0.109-0.103-0.109-0.176
		C11.67,14.641,11.352,13.359,12.233,12.577L12.233,12.577z"/>
	<path fill="#0062F6" d="M13.932,11.033c-0.703,1.186-2.398,1.003-2.403,2.73l0,0c0,0.049-0.017,0.096-0.052,0.131
		c-0.033,0.053-0.086,0.088-0.147,0.101c-0.061,0.01-0.124-0.007-0.172-0.045c-0.644-0.517-0.518-1.459-0.121-2.105
		c0.249-0.403,0.727-0.646,1.075-0.945c0.69-0.594,0.768-1.308,0.775-2.167c-0.003-0.089,0.057-0.167,0.146-0.185
		c0.056-0.032,0.127-0.034,0.186-0.003c0.422,0.24,0.73,0.634,0.864,1.1C14.214,10.108,14.161,10.606,13.932,11.033L13.932,11.033z"
		/>
	<path fill="#0062F6" d="M12.078,11.751h-0.011l-0.012,0.002h0.001c-0.017,0.002-0.034,0-0.048-0.007
		c-0.068-0.042-0.156-0.039-0.222,0.007c-0.066,0.045-0.099,0.124-0.085,0.203c-0.016,0.168,0.062,0.33,0.202,0.422
		c0.033,0.016,0.068,0.024,0.105,0.024c0.054,0,0.107-0.021,0.146-0.057c0.11-0.113,0.155-0.276,0.112-0.429
		C12.245,11.828,12.169,11.761,12.078,11.751L12.078,11.751z"/>
	<path fill="#0062F6" d="M11.74,13.176l0.008,0.184l0.142-0.117l0,0c0.105-0.08,0.194-0.184,0.257-0.299
		c0.066-0.182,0.095-0.377,0.086-0.569c0-0.054,0.002-0.111,0.006-0.162c0.003-0.064,0.009-0.129,0.013-0.194
		c0.044-0.356,0.032-0.718-0.036-1.07l-0.045-0.186l-0.114,0.154c-0.41,0.547-0.368,1.311-0.331,1.982
		C11.732,12.992,11.737,13.084,11.74,13.176L11.74,13.176z"/>
	<path fill="#0062F6" d="M12.827,10.403l-0.048,0.324c-0.049,0.368-0.234,0.704-0.521,0.945c-0.076,0.067-0.169,0.141-0.266,0.218
		c-0.497,0.394-1.179,0.936-1.032,1.549l0.067,0.275l0.106-0.264c0.153-0.383,0.517-0.645,0.903-0.917
		c0.366-0.225,0.681-0.526,0.923-0.883c0.104-0.308,0.103-0.642-0.005-0.949L12.827,10.403z"/>
	<path fill="#0062F6" d="M11.572,12.938c-0.465-0.328-0.333-1.247-0.046-1.653c0.011-0.017,0.026-0.032,0.042-0.044
		c0.035-0.094,0.134-0.148,0.23-0.126c0.395,0.084,1.345,0.234,1.448-0.351c0.129-0.738-0.851-0.919-1.347-0.648
		c-0.665,0.359-1.043,1.206-1.142,1.915c-0.096,0.697-0.042,1.754,0.698,2.098C11.484,13.988,11.684,13.021,11.572,12.938
		L11.572,12.938z"/>
	<path fill="#0062F6" d="M11.356,12.465h0.083c0.362-0.003,0.725,0.029,1.081,0.1l0.104,0.021l0.007-0.105
		c0.036-0.305-0.068-0.611-0.286-0.832c-0.142-0.112-0.33-0.146-0.501-0.087c-0.476,0.135-0.519,0.475-0.493,0.82L11.356,12.465z"/>
	<path fill="#0062F6" d="M11.67,10.013l-0.077,0.014l0.003,0.078c0.012,0.659,0.042,1.329,0.072,1.976
		c0.03,0.662,0.061,1.347,0.072,2.021l0.006,0.238l0.154-0.18c0.466-0.539,0.442-1.34,0.42-2.047
		c-0.005-0.143-0.008-0.283-0.008-0.417c0-0.568,0.003-1.171,0.059-1.765l0.015-0.153l-0.14,0.062l0,0
		C12.062,9.918,11.868,9.977,11.67,10.013L11.67,10.013z"/>
	<path fill="#0062F6" d="M12.7,9.459c-0.027,0.584-0.343,1.116-0.841,1.422c-0.065,0.039-0.144,0.037-0.206-0.002
		s-0.097-0.11-0.09-0.184c-0.002-0.011-0.003-0.023-0.006-0.034c-0.011-1.494-0.132-2.984-0.158-4.478
		c0.001-0.018,0.005-0.034,0.01-0.048c-0.016-0.047-0.007-0.096,0.018-0.138c0.026-0.04,0.07-0.065,0.117-0.071
		c0.354-0.042,0.693-0.16,0.998-0.342c0.183-0.111,0.351,0.107,0.278,0.262C12.678,7.045,12.801,8.255,12.7,9.459L12.7,9.459z"/>
</g>
<path display="none" fill="#FFFFFF" d="M7.296,8.344l3.345-2.43c0.376-0.275,0.832-0.416,1.298-0.401
	c1.163,0.029,2.18,0.792,2.532,1.899c0.193,0.609,0.371,1.02,0.532,1.234c0.983,1.314,2.532,2.086,4.173,2.085v2.087
	c-2.184,0.002-4.25-0.972-5.639-2.658l-0.729,4.128l2.151,1.808l2.319,6.373l-1.965,0.715l-2.127-5.85l-3.539-2.971
	c-0.591-0.477-0.877-1.238-0.744-1.986l0.531-3.011L8.733,9.88l-2.221,3.056l-1.688-1.228l2.454-3.377L7.296,8.344z M13.436,4.991
	c-1.15,0-2.085-0.935-2.085-2.087c0-1.152,0.935-2.087,2.085-2.087c1.153,0,2.088,0.935,2.088,2.087
	C15.523,4.056,14.589,4.991,13.436,4.991z M10.334,18.75L6.98,22.747l-1.599-1.341l3.105-3.702l0.778-2.274l1.87,1.564L10.334,18.75
	z"/>
<g display="none">
	<path display="inline" fill="#FFFFFF" d="M3.793,8.641c0-0.891,0.721-1.612,1.612-1.613c0.001,0,0.002,0,0.003,0
		c0.891-0.002,1.615,0.72,1.616,1.612c0,0,0,0,0,0.001c0,0.894-0.723,1.615-1.616,1.615C4.516,10.256,3.793,9.534,3.793,8.641z"/>
	<path display="inline" fill="#FFFFFF" d="M19.395,7.652c0.709,0,1.283,0.558,1.291,1.263l0.002,3.406H7.723V7.655L19.395,7.652z"/>
	<path display="inline" fill="#FFFFFF" d="M6.23,12.319c0.438,0,0.794-0.356,0.794-0.795c0-0.438-0.356-0.794-0.794-0.794H3.933
		c-0.438,0-0.793,0.354-0.793,0.793c0,0,0,0,0,0.001c0,0.438,0.354,0.795,0.793,0.795H6.23L6.23,12.319z"/>
	<path display="inline" fill="#FFFFFF" d="M21.455,15.668v3.555h2.104V7.956c0-0.581-0.469-1.052-1.049-1.052l0,0
		c-0.582-0.001-1.055,0.469-1.055,1.052v5.171H2.565V5.83c0-0.58-0.505-1.053-1.087-1.053v0.001c-0.579,0-1.036,0.472-1.036,1.051
		v13.392h2.124v-3.553H21.455L21.455,15.668z"/>
</g>
</svg>
